<?xml version="1.0" encoding="iso-8859-1"?>
<!-- Generator: Adobe Illustrator 19.0.0, SVG Export Plug-In . SVG Version: 6.00 Build 0)  -->
<svg version="1.1" id="Capa_1" xmlns="http://www.w3.org/2000/svg" xmlns:xlink="http://www.w3.org/1999/xlink" x="0px" y="0px"
	 viewBox="0 0 512 512" style="enable-background:new 0 0 512 512;" xml:space="preserve">
<g>
	<g>
		<path d="M373.333,256h-9.556l19.37-193.701c12.827-4.172,22.186-16.099,22.186-30.299c0-17.646-14.354-32-32-32H138.667
			c-17.646,0-32,14.354-32,32c0,14.201,9.359,26.128,22.186,30.299L148.223,256h-9.556c-17.646,0-32,14.354-32,32
			c0,13.888,8.944,25.617,21.333,30.035v183.298c0,5.896,4.771,10.667,10.667,10.667c5.896,0,10.667-4.771,10.667-10.667V384
			h213.333v117.333c0,5.896,4.771,10.667,10.667,10.667c5.896,0,10.667-4.771,10.667-10.667V318.035
			c12.389-4.418,21.333-16.147,21.333-30.035C405.333,270.354,390.979,256,373.333,256z M138.667,42.667
			C132.792,42.667,128,37.885,128,32s4.792-10.667,10.667-10.667h234.667C379.208,21.333,384,26.115,384,32
			s-4.792,10.667-10.667,10.667H138.667z M361.556,64l-19.199,192h-27.151l9.6-192H361.556z M303.461,64l-9.6,192h-27.194V64
			H303.461z M245.333,64v192h-27.194l-9.6-192H245.333z M196.794,256h-27.151L150.444,64h36.75L196.794,256z M362.667,362.667
			H149.333V320h213.333V362.667z M373.333,298.667H138.667c-5.875,0-10.667-4.781-10.667-10.667s4.792-10.667,10.667-10.667h234.667
			c5.875,0,10.667,4.781,10.667,10.667S379.208,298.667,373.333,298.667z"/>
	</g>
</g>
<g>
</g>
<g>
</g>
<g>
</g>
<g>
</g>
<g>
</g>
<g>
</g>
<g>
</g>
<g>
</g>
<g>
</g>
<g>
</g>
<g>
</g>
<g>
</g>
<g>
</g>
<g>
</g>
<g>
</g>
</svg>
