<?xml version="1.0" encoding="iso-8859-1"?>
<!-- Generator: Adobe Illustrator 19.0.0, SVG Export Plug-In . SVG Version: 6.00 Build 0)  -->
<svg version="1.1" id="Capa_1" xmlns="http://www.w3.org/2000/svg" xmlns:xlink="http://www.w3.org/1999/xlink" x="0px" y="0px"
	 viewBox="0 0 512 512" style="enable-background:new 0 0 512 512;" xml:space="preserve">
<g>
	<g>
		<path d="M373.333,256h-9.556l19.37-193.701c12.827-4.172,22.186-16.099,22.186-30.299c0-17.646-14.354-32-32-32H138.667
			c-17.646,0-32,14.354-32,32c0,14.201,9.359,26.128,22.186,30.299L148.223,256h-9.556c-17.646,0-32,14.354-32,32
			c0,13.888,8.944,25.617,21.333,30.035v55.195c0,0.036-0.021,0.066-0.021,0.103c0,0.036,0.021,0.066,0.021,0.103v127.897
			c0,5.896,4.771,10.667,10.667,10.667H160c5.896,0,10.667-4.771,10.667-10.667V384h170.667v117.333
			c0,5.896,4.771,10.667,10.667,10.667h21.333c5.896,0,10.667-4.771,10.667-10.667V318.035
			c12.389-4.418,21.333-16.147,21.333-30.035C405.333,270.354,390.979,256,373.333,256z M266.667,64h36.794l-9.6,192h-27.194V64z
			 M245.333,64v192h-27.194l-9.6-192H245.333z M169.643,256L150.444,64h36.75l9.6,192H169.643z M341.333,362.667H170.667V320
			h170.667V362.667z M342.357,256h-27.151l9.6-192h36.75L342.357,256z"/>
	</g>
</g>
<g>
</g>
<g>
</g>
<g>
</g>
<g>
</g>
<g>
</g>
<g>
</g>
<g>
</g>
<g>
</g>
<g>
</g>
<g>
</g>
<g>
</g>
<g>
</g>
<g>
</g>
<g>
</g>
<g>
</g>
</svg>
