<?xml version="1.0" encoding="iso-8859-1"?>
<!-- Generator: Adobe Illustrator 19.0.0, SVG Export Plug-In . SVG Version: 6.00 Build 0)  -->
<svg version="1.1" id="Capa_1" xmlns="http://www.w3.org/2000/svg" xmlns:xlink="http://www.w3.org/1999/xlink" x="0px" y="0px"
	 viewBox="0 0 512 512" style="enable-background:new 0 0 512 512;" xml:space="preserve">
<path style="fill:#303C42;" d="M437.333,256h-10.667V10.667C426.667,4.771,421.896,0,416,0c-5.896,0-10.667,4.771-10.667,10.667
	v10.667H106.667V10.667C106.667,4.771,101.896,0,96,0c-5.896,0-10.667,4.771-10.667,10.667V256H74.667
	C68.771,256,64,260.771,64,266.667v42.667C64,315.229,68.771,320,74.667,320h18.379l142.221,85.333L90.51,492.188
	c-5.052,3.031-6.688,9.583-3.656,14.635c2,3.333,5.531,5.177,9.156,5.177c1.865,0,3.76-0.49,5.479-1.521L256,417.773l154.51,92.706
	c1.719,1.031,3.615,1.521,5.479,1.521c3.625,0,7.156-1.844,9.156-5.177c3.031-5.052,1.396-11.604-3.656-14.635l-144.757-86.854
	L418.954,320h18.379c5.896,0,10.667-4.771,10.667-10.667v-42.667C448,260.771,443.229,256,437.333,256z M106.667,170.667h298.667
	V256H106.667V170.667z M256,392.893L134.51,320H377.49L256,392.893z"/>
<rect x="106.667" y="42.667" style="fill:#6D5C20;" width="298.667" height="106.667"/>
<rect x="106.667" y="42.667" style="opacity:0.1;enable-background:new    ;" width="21.333" height="106.667"/>
<rect x="384" y="42.667" style="opacity:0.2;fill:#FFFFFF;enable-background:new    ;" width="21.333" height="106.667"/>
<rect x="85.333" y="277.333" style="fill:#6D5C20;" width="341.333" height="21.333"/>
<rect x="85.333" y="277.333" style="opacity:0.2;fill:#FFFFFF;enable-background:new    ;" width="21.333" height="21.333"/>
<rect x="405.333" y="277.333" style="opacity:0.1;enable-background:new    ;" width="21.333" height="21.333"/>
<linearGradient id="SVGID_1_" gradientUnits="userSpaceOnUse" x1="-45.7217" y1="639.623" x2="-23.6846" y2="629.3459" gradientTransform="matrix(21.3333 0 0 -21.3333 996.3334 13791.667)">
	<stop  offset="0" style="stop-color:#FFFFFF;stop-opacity:0.2"/>
	<stop  offset="1" style="stop-color:#FFFFFF;stop-opacity:0"/>
</linearGradient>
<path style="fill:url(#SVGID_1_);" d="M437.333,256h-10.667V10.667C426.667,4.771,421.896,0,416,0
	c-5.896,0-10.667,4.771-10.667,10.667v10.667H106.667V10.667C106.667,4.771,101.896,0,96,0c-5.896,0-10.667,4.771-10.667,10.667V256
	H74.667C68.771,256,64,260.771,64,266.667v42.667C64,315.229,68.771,320,74.667,320h18.379l142.221,85.333L90.51,492.188
	c-5.052,3.031-6.688,9.583-3.656,14.635c2,3.333,5.531,5.177,9.156,5.177c1.865,0,3.76-0.49,5.479-1.521L256,417.773l154.51,92.706
	c1.719,1.031,3.615,1.521,5.479,1.521c3.625,0,7.156-1.844,9.156-5.177c3.031-5.052,1.396-11.604-3.656-14.635l-144.757-86.854
	L418.954,320h18.379c5.896,0,10.667-4.771,10.667-10.667v-42.667C448,260.771,443.229,256,437.333,256z M106.667,170.667h298.667
	V256H106.667V170.667z M256,392.893L134.51,320H377.49L256,392.893z"/>
<g>
</g>
<g>
</g>
<g>
</g>
<g>
</g>
<g>
</g>
<g>
</g>
<g>
</g>
<g>
</g>
<g>
</g>
<g>
</g>
<g>
</g>
<g>
</g>
<g>
</g>
<g>
</g>
<g>
</g>
</svg>
