<?xml version="1.0" encoding="iso-8859-1"?>
<!-- Generator: Adobe Illustrator 19.0.0, SVG Export Plug-In . SVG Version: 6.00 Build 0)  -->
<svg version="1.1" id="Capa_1" xmlns="http://www.w3.org/2000/svg" xmlns:xlink="http://www.w3.org/1999/xlink" x="0px" y="0px"
	 viewBox="0 0 512 512" style="enable-background:new 0 0 512 512;" xml:space="preserve">
<path style="fill:#303C42;" d="M332.917,171.823C327.229,166.646,320.771,160.771,320,160c0-11.609,14.943-36.1,26.267-54.484
	l52.358-20.943c4.958-1.979,7.688-7.323,6.396-12.49c-1.917-7.604-12-46.156-24.146-58.292C367.75,0.667,336.75,0,330.667,0
	c-2.833,0-5.542,1.125-7.542,3.125c-11,11-44.5,39.542-67.125,39.542c-22.563,0-56.104-28.552-67.125-39.542
	c-2-2-4.708-3.125-7.542-3.125c-6.083,0-37.083,0.667-50.208,13.792c-12.146,12.135-22.229,50.688-24.146,58.292
	c-1.292,5.167,1.438,10.51,6.396,12.49l52.358,20.943c11.323,18.384,26.272,42.845,26.517,53.005
	c-1.021,2.25-7.479,8.125-13.167,13.302C144.646,203.188,64,276.635,64,480c0,5.896,4.771,10.667,10.667,10.667
	c44.104,0,65.521,5.042,88.229,10.385C185.771,506.438,209.438,512,256,512s70.229-5.563,93.104-10.948
	c22.708-5.344,44.125-10.385,88.229-10.385c5.896,0,10.667-4.771,10.667-10.667C448,276.635,367.354,203.188,332.917,171.823z"/>
<path style="fill:#FAFAFA;" d="M344.229,480.281c-22.708,5.344-44.125,10.385-88.229,10.385s-65.521-5.042-88.229-10.385
	c-21.042-4.948-42.75-10.063-82.354-10.844C88,283.625,159,218.969,193.458,187.594c12.396-11.292,19.875-18.104,19.875-27.594
	c0-17.896-16.042-43.917-30.167-66.865c-5.479-8.875-10.5-17-13.625-23.24c-2.646-5.281-9.021-7.385-14.313-4.771
	c-4.185,2.092-6.264,6.551-5.68,10.941l-19.466-7.785c4.875-17.021,11.646-34.917,16.125-39.406
	c4.333-4.333,19.479-6.896,30.917-7.438C188.729,32.375,224.958,64,256,64s67.271-31.625,78.875-42.563
	c11.438,0.542,26.583,3.104,30.917,7.438c4.479,4.49,11.25,22.385,16.125,39.406l-19.466,7.785c0.585-4.391-1.495-8.849-5.68-10.941
	c-5.271-2.594-11.667-0.51-14.313,4.771c-3.125,6.24-8.146,14.365-13.625,23.24c-14.125,22.948-30.167,48.969-30.167,66.865
	c0,9.49,7.479,16.302,19.875,27.594C353,218.969,424,283.625,426.583,469.438C386.979,470.219,365.271,475.333,344.229,480.281z"/>
<path style="opacity:0.1;enable-background:new    ;" d="M205.16,187.594c10.077-11.292,16.156-18.104,16.156-27.594
	c0-17.896-17.538-50.648-29.316-64c-4.598-5.211-10.919-15.126-19.79-21.322c3.026,5.449,6.71,11.578,10.957,18.457
	c14.125,22.948,30.167,48.969,30.167,66.865c0,9.49-7.479,16.302-19.875,27.594c-19.587,17.835-50.957,46.509-74.882,101.992
	C149.93,234.092,189.232,205.435,205.16,187.594z"/>
<path style="opacity:0.1;enable-background:new    ;" d="M425.69,445.754c-8.061-167.501-74.215-228.174-107.148-258.16
	c-12.396-11.292-19.875-18.104-19.875-27.594c0-17.896,16.042-43.917,30.167-66.865c2.986-4.836,5.746-9.355,8.228-13.563
	C328.168,84.156,324.181,91.789,320,96c-12.544,12.634-29.316,46.104-29.316,64c0,9.49,6.079,16.302,16.156,27.594
	C333.617,217.586,416.577,278.184,425.69,445.754z"/>
<path style="opacity:0.1;enable-background:new    ;" d="M364.098,237.326c22.267,35.573,42.62,86.865,49.501,163.621
	c2.247,25.077-15.646,47.272-40.605,50.579c-15.409,2.043-27.505,4.824-39.388,7.553c-22.719,5.223-44.146,10.15-88.272,10.15
	s-65.553-4.927-88.272-10.15c-18.895-4.34-38.441-8.784-70.87-10.207c-0.296,6.789-0.676,13.423-0.775,20.565
	c39.604,0.781,61.313,5.896,82.354,10.844c22.708,5.344,44.125,10.385,88.229,10.385s65.521-5.042,88.229-10.385
	c21.042-4.948,42.75-10.063,82.354-10.844C424.913,349.243,394.615,279.915,364.098,237.326z"/>
<linearGradient id="SVGID_1_" gradientUnits="userSpaceOnUse" x1="-44.1179" y1="638.4544" x2="-23.4072" y2="628.7966" gradientTransform="matrix(21.3333 0 0 -21.3333 996.3334 13791.667)">
	<stop  offset="0" style="stop-color:#FFFFFF;stop-opacity:0.2"/>
	<stop  offset="1" style="stop-color:#FFFFFF;stop-opacity:0"/>
</linearGradient>
<path style="fill:url(#SVGID_1_);" d="M332.917,171.823C327.229,166.646,320.771,160.771,320,160
	c0-11.609,14.943-36.1,26.267-54.484l52.358-20.943c4.958-1.979,7.688-7.323,6.396-12.49c-1.917-7.604-12-46.156-24.146-58.292
	C367.75,0.667,336.75,0,330.667,0c-2.833,0-5.542,1.125-7.542,3.125c-11,11-44.5,39.542-67.125,39.542
	c-22.563,0-56.104-28.552-67.125-39.542c-2-2-4.708-3.125-7.542-3.125c-6.083,0-37.083,0.667-50.208,13.792
	c-12.146,12.135-22.229,50.688-24.146,58.292c-1.292,5.167,1.438,10.51,6.396,12.49l52.358,20.943
	c11.323,18.384,26.272,42.845,26.517,53.005c-1.021,2.25-7.479,8.125-13.167,13.302C144.646,203.188,64,276.635,64,480
	c0,5.896,4.771,10.667,10.667,10.667c44.104,0,65.521,5.042,88.229,10.385C185.771,506.438,209.438,512,256,512
	s70.229-5.563,93.104-10.948c22.708-5.344,44.125-10.385,88.229-10.385c5.896,0,10.667-4.771,10.667-10.667
	C448,276.635,367.354,203.188,332.917,171.823z"/>
<g>
</g>
<g>
</g>
<g>
</g>
<g>
</g>
<g>
</g>
<g>
</g>
<g>
</g>
<g>
</g>
<g>
</g>
<g>
</g>
<g>
</g>
<g>
</g>
<g>
</g>
<g>
</g>
<g>
</g>
</svg>
