<?xml version="1.0" encoding="iso-8859-1"?>
<!-- Generator: Adobe Illustrator 19.0.0, SVG Export Plug-In . SVG Version: 6.00 Build 0)  -->
<svg version="1.1" id="Capa_1" xmlns="http://www.w3.org/2000/svg" xmlns:xlink="http://www.w3.org/1999/xlink" x="0px" y="0px"
	 viewBox="0 0 512.003 512.003" style="enable-background:new 0 0 512.003 512.003;" xml:space="preserve">
<polygon style="fill:#4398D1;" points="375.456,8.532 136.547,8.532 110.949,494.884 196.274,503.416 256.002,136.52 
	315.729,503.416 401.054,494.884 "/>
<path style="fill:#126099;" d="M379.979,93.857h-2.474c-16.741-8.942-29.079-24.369-34.13-42.662h34.13l-0.853-17.065H264.534V8.532
	h-17.065V34.13h-17.065V8.532h-17.065V34.13h-78.158l-0.853,17.065h34.13c-5.051,18.294-17.389,33.72-34.13,42.662h-2.474
	l-0.853,17.065h5.546c1.34-0.009,2.654-0.333,3.84-0.939c23.405-11.604,40.239-33.251,45.734-58.789h27.219v30.12
	c-0.119,26.63,14.949,50.999,38.823,62.799c1.186,0.606,2.5,0.93,3.84,0.939c1.596,0.009,3.166-0.435,4.522-1.28
	c2.5-1.561,4.019-4.3,4.01-7.253V51.195h61.349c5.495,25.538,22.329,47.185,45.734,58.789c1.186,0.606,2.5,0.93,3.84,0.939h5.375
	L379.979,93.857z M247.469,120.393c-10.922-10.051-17.108-24.232-17.065-39.079v-30.12h17.065V120.393z"/>
<g>
	<path style="fill:#3E8CC7;" d="M110.949,494.884l85.325,8.532l27.56-169.284c-33.413,22.876-69.454,41.664-107.339,55.973
		L110.949,494.884z"/>
	<path style="fill:#3E8CC7;" d="M280.831,288.91l34.898,214.507l85.325-8.532L383.989,169.37
		C354.287,213.03,319.68,253.142,280.831,288.91z"/>
</g>
<path d="M195.421,511.949c4.548,0.512,8.686-2.645,9.386-7.167l51.195-315.19l51.195,315.19c0.674,4.172,4.309,7.218,8.533,7.167
	h0.853l85.325-8.533c4.377-0.444,7.705-4.138,7.679-8.532L383.989,8.532c0-4.71-3.823-8.532-8.532-8.532H136.547
	c-4.71,0-8.532,3.823-8.532,8.532l-25.597,486.351c-0.026,4.394,3.302,8.089,7.679,8.532L195.421,511.949z M230.404,51.195h17.065
	v69.198c-10.922-10.051-17.108-24.232-17.065-39.079V51.195z M230.404,34.13V17.065h17.065V34.13H230.404z M322.896,494.116
	l-58.362-358.279V51.195h61.349c5.495,25.538,22.329,47.185,45.734,58.789c0,0,0.427,0,0.683,0l20.222,377.221L322.896,494.116z
	 M371.19,90.018c-13.567-9.232-23.396-22.995-27.731-38.823h25.597L371.19,90.018z M368.289,34.13H264.534V17.065h102.39
	L368.289,34.13z M213.339,17.065V34.13h-69.625l1.365-17.065H213.339z M168.544,51.195c-4.335,15.828-14.164,29.591-27.731,38.823
	l2.048-38.823H168.544z M139.704,110.154c0,0,0.427,0,0.683,0c23.447-11.647,40.29-33.353,45.734-58.959h27.219v30.12
	c-0.085,24.352,12.526,46.988,33.277,59.727l-57.509,353.245l-69.198-6.911L139.704,110.154z"/>
<g>
</g>
<g>
</g>
<g>
</g>
<g>
</g>
<g>
</g>
<g>
</g>
<g>
</g>
<g>
</g>
<g>
</g>
<g>
</g>
<g>
</g>
<g>
</g>
<g>
</g>
<g>
</g>
<g>
</g>
</svg>
