<?xml version="1.0" encoding="iso-8859-1"?>
<!-- Generator: Adobe Illustrator 19.0.0, SVG Export Plug-In . SVG Version: 6.00 Build 0)  -->
<svg version="1.1" id="Layer_1" xmlns="http://www.w3.org/2000/svg" xmlns:xlink="http://www.w3.org/1999/xlink" x="0px" y="0px"
	 viewBox="0 0 511.999 511.999" style="enable-background:new 0 0 511.999 511.999;" xml:space="preserve">
<g>
	<g>
		<g>
			<path d="M465.733,153.462c4.466,0,8.084-3.618,8.084-8.084V72.825c0-13.383-10.888-24.271-24.269-24.271h-54.894L343.008,2.075
				c-0.094-0.084-0.199-0.146-0.295-0.225c-0.178-0.146-0.358-0.287-0.548-0.417c-0.179-0.123-0.36-0.235-0.546-0.342
				c-0.179-0.102-0.358-0.199-0.544-0.288c-0.218-0.105-0.438-0.197-0.663-0.281c-0.162-0.06-0.323-0.115-0.488-0.165
				c-0.271-0.082-0.542-0.149-0.818-0.203c-0.124-0.024-0.247-0.045-0.372-0.063c-0.337-0.05-0.675-0.077-1.016-0.082
				C337.676,0.009,337.638,0,337.6,0h-163.2c-0.11,0-0.216,0.022-0.326,0.026c-0.223,0.009-0.444,0.027-0.666,0.054
				c-0.215,0.026-0.425,0.06-0.635,0.103c-0.209,0.043-0.414,0.094-0.62,0.153c-0.211,0.061-0.417,0.13-0.622,0.208
				c-0.196,0.074-0.388,0.155-0.579,0.246c-0.202,0.096-0.397,0.199-0.59,0.31c-0.179,0.103-0.354,0.21-0.525,0.328
				c-0.193,0.133-0.376,0.275-0.557,0.424c-0.095,0.078-0.199,0.139-0.291,0.221l-51.645,46.48H62.451
				c-13.382,0-24.269,10.888-24.269,24.271v414.906c0,13.382,10.888,24.269,24.269,24.269h387.097
				c13.382,0,24.269-10.888,24.269-24.269v-314.33c0-4.466-3.618-8.084-8.084-8.084s-8.084,3.618-8.084,8.084v314.331
				c0,4.468-3.633,8.101-8.101,8.101H62.451c-4.467,0-8.101-3.634-8.101-8.101V72.825c0-4.468,3.635-8.102,8.101-8.102h52.49
				l59.016,149.984c0.961,2.444,3.049,4.267,5.598,4.891c0.668,0.165,1.346,0.236,2.019,0.229c0.251-0.003,0.501-0.018,0.75-0.045
				c0.101-0.011,0.2-0.026,0.302-0.041c0.192-0.028,0.383-0.063,0.572-0.103c0.096-0.021,0.192-0.041,0.287-0.065
				c0.26-0.067,0.516-0.143,0.768-0.235c0.028-0.01,0.055-0.02,0.082-0.031c0.253-0.096,0.501-0.207,0.745-0.329
				c0.08-0.04,0.156-0.083,0.235-0.125c0.186-0.101,0.37-0.209,0.549-0.324c0.073-0.047,0.147-0.093,0.218-0.142
				c0.24-0.167,0.474-0.342,0.697-0.536l27.505-23.895l15.353,23.587l-31.301,195.695c-0.451,2.818,0.618,5.664,2.81,7.489
				l49.679,41.364c0.47,0.391,0.975,0.722,1.506,0.992c0.001,0.001,0.002,0.001,0.003,0.002c0.152,0.077,0.307,0.15,0.465,0.218
				c1.029,0.443,2.118,0.66,3.199,0.66c1.858,0,3.695-0.64,5.174-1.871l49.679-41.363c2.192-1.825,3.261-4.672,2.81-7.489
				l-16.977-106.132c-0.706-4.41-4.845-7.409-9.26-6.707c-4.409,0.705-7.411,4.852-6.707,9.26l16.25,101.588L256,445.357
				l-40.971-34.112l29.979-187.419h22.079l9.859,56.575c0.767,4.398,4.959,7.344,9.353,6.576c4.398-0.766,7.343-4.954,6.576-9.353
				l-10.621-60.943l15.033-23.096l27.93,24.264c0.223,0.193,0.457,0.369,0.696,0.535c0.073,0.051,0.149,0.098,0.224,0.147
				c0.177,0.113,0.357,0.22,0.54,0.319c0.081,0.044,0.161,0.088,0.242,0.129c0.24,0.12,0.485,0.23,0.735,0.324
				c0.034,0.013,0.068,0.026,0.102,0.038c0.247,0.089,0.499,0.166,0.753,0.231c0.097,0.025,0.195,0.045,0.293,0.067
				c0.188,0.041,0.376,0.074,0.566,0.101c0.102,0.015,0.203,0.03,0.306,0.041c0.247,0.026,0.494,0.041,0.743,0.044
				c0.675,0.009,1.355-0.063,2.025-0.229c2.549-0.624,4.637-2.448,5.598-4.891l59.016-149.984h52.49
				c4.467,0,8.101,3.635,8.101,8.102v72.553C457.649,149.843,461.268,153.462,465.733,153.462z M180.878,21.632
				c0.005-0.341,0.013-0.675,0.023-1.001c0.005-0.168,0.01-0.337,0.016-0.502c0.013-0.35,0.029-0.691,0.046-1.024
				c0.006-0.112,0.011-0.23,0.017-0.34c0.025-0.43,0.054-0.844,0.084-1.243c0.01-0.119,0.019-0.231,0.029-0.347
				c0.024-0.283,0.048-0.562,0.074-0.83c0.005-0.06,0.012-0.117,0.018-0.177h149.621c0.66,6.492,0.714,18.1-3.947,32.994
				c-6.409,20.475-23.174,51.212-66.322,84.412c-0.115,0.088-0.229,0.177-0.344,0.266c-1.372,1.052-2.77,2.107-4.195,3.165
				c-1.459-1.082-2.892-2.162-4.295-3.24c-0.313-0.24-0.61-0.479-0.919-0.719c-1.097-0.849-2.191-1.699-3.254-2.545
				c-0.545-0.434-1.069-0.866-1.606-1.299c-0.804-0.649-1.616-1.299-2.4-1.946c-0.594-0.489-1.165-0.977-1.747-1.465
				c-0.701-0.587-1.409-1.175-2.093-1.76c-0.604-0.516-1.187-1.029-1.777-1.544c-0.636-0.553-1.279-1.108-1.901-1.659
				c-0.597-0.529-1.174-1.055-1.758-1.582c-0.591-0.534-1.189-1.068-1.767-1.6c-0.581-0.535-1.144-1.066-1.712-1.598
				c-0.555-0.521-1.116-1.041-1.659-1.56c-0.562-0.536-1.106-1.069-1.655-1.603c-0.525-0.511-1.053-1.022-1.566-1.531
				c-0.54-0.536-1.064-1.067-1.591-1.6c-0.497-0.502-0.996-1.005-1.482-1.505c-0.52-0.535-1.024-1.067-1.531-1.599
				c-0.469-0.493-0.94-0.985-1.398-1.476c-0.498-0.532-0.983-1.063-1.468-1.593c-0.444-0.485-0.889-0.97-1.323-1.453
				c-0.475-0.528-0.939-1.054-1.401-1.58c-0.42-0.479-0.842-0.956-1.253-1.432c-0.453-0.525-0.897-1.048-1.338-1.569
				c-0.398-0.471-0.794-0.941-1.182-1.409c-0.43-0.52-0.852-1.036-1.27-1.551c-0.378-0.466-0.753-0.931-1.122-1.395
				c-0.407-0.513-0.808-1.024-1.205-1.533c-0.357-0.458-0.71-0.915-1.057-1.371c-0.387-0.508-0.768-1.013-1.145-1.518
				c-0.336-0.452-0.669-0.901-0.997-1.349c-0.365-0.5-0.725-0.998-1.08-1.495c-0.319-0.446-0.633-0.891-0.943-1.334
				c-0.344-0.492-0.683-0.982-1.018-1.47c-0.301-0.44-0.596-0.878-0.888-1.315c-0.323-0.483-0.643-0.966-0.956-1.444
				c-0.285-0.435-0.563-0.869-0.839-1.3c-0.303-0.474-0.604-0.947-0.896-1.416c-0.267-0.429-0.527-0.854-0.787-1.279
				c-0.284-0.465-0.565-0.929-0.839-1.389c-0.252-0.425-0.498-0.846-0.743-1.269c-0.262-0.451-0.524-0.902-0.777-1.348
				c-0.239-0.422-0.47-0.841-0.702-1.259c-0.242-0.439-0.486-0.878-0.72-1.313c-0.224-0.416-0.439-0.828-0.655-1.238
				c-0.225-0.428-0.452-0.857-0.668-1.281c-0.21-0.412-0.412-0.819-0.615-1.227c-0.206-0.414-0.415-0.83-0.613-1.24
				c-0.198-0.409-0.387-0.812-0.578-1.217c-0.189-0.399-0.379-0.8-0.56-1.194c-0.188-0.409-0.364-0.811-0.544-1.214
				c-0.169-0.38-0.343-0.764-0.507-1.14c-0.177-0.409-0.344-0.811-0.513-1.214c-0.152-0.362-0.308-0.727-0.454-1.084
				c-0.168-0.413-0.326-0.816-0.486-1.222c-0.134-0.338-0.273-0.681-0.401-1.015c-0.163-0.425-0.315-0.841-0.469-1.258
				c-0.113-0.306-0.232-0.617-0.341-0.918c-0.168-0.469-0.324-0.926-0.483-1.385c-0.083-0.241-0.172-0.488-0.252-0.728
				c-0.233-0.694-0.456-1.379-0.666-2.051c-0.266-0.849-0.512-1.685-0.748-2.511c-0.072-0.254-0.14-0.504-0.209-0.756
				c-0.161-0.582-0.316-1.16-0.463-1.731c-0.069-0.268-0.138-0.536-0.204-0.802c-0.148-0.596-0.288-1.185-0.42-1.768
				c-0.045-0.201-0.095-0.403-0.139-0.601c-0.17-0.769-0.329-1.526-0.475-2.271c-0.031-0.158-0.057-0.313-0.087-0.47
				c-0.112-0.59-0.219-1.174-0.317-1.748c-0.041-0.24-0.079-0.477-0.117-0.716c-0.081-0.501-0.157-0.997-0.229-1.485
				c-0.032-0.224-0.066-0.451-0.096-0.673c-0.08-0.583-0.152-1.157-0.218-1.72c-0.012-0.102-0.027-0.21-0.039-0.313
				c-0.074-0.659-0.138-1.302-0.194-1.935c-0.017-0.191-0.031-0.377-0.046-0.566c-0.037-0.447-0.07-0.888-0.099-1.321
				c-0.014-0.212-0.027-0.423-0.039-0.632c-0.025-0.424-0.045-0.84-0.063-1.249c-0.008-0.172-0.016-0.348-0.022-0.518
				c-0.019-0.562-0.034-1.112-0.041-1.646c-0.001-0.092,0-0.179-0.001-0.269c-0.004-0.448-0.005-0.887-0.001-1.315
				C180.873,21.97,180.875,21.802,180.878,21.632z M210.695,175.658c-0.003,0.002-0.005,0.005-0.009,0.009l-25.87,22.476
				L130.024,58.897l34.723-31.25c0.003,0.064,0.008,0.13,0.011,0.194c0.006,0.127,0.015,0.257,0.023,0.385
				c0.027,0.468,0.057,0.941,0.093,1.421c0.009,0.115,0.016,0.23,0.025,0.346c0.042,0.556,0.091,1.121,0.144,1.693
				c0.014,0.151,0.029,0.303,0.044,0.455c0.051,0.514,0.106,1.034,0.166,1.561c0.011,0.096,0.02,0.19,0.031,0.286
				c0.07,0.593,0.148,1.196,0.23,1.804c0.023,0.169,0.046,0.339,0.071,0.51c0.083,0.592,0.171,1.189,0.267,1.795
				c0.01,0.058,0.018,0.116,0.027,0.175c0.099,0.622,0.208,1.253,0.322,1.888c0.032,0.178,0.064,0.357,0.097,0.536
				c0.12,0.651,0.245,1.306,0.38,1.972c0.021,0.099,0.042,0.199,0.063,0.3c0.123,0.594,0.252,1.195,0.388,1.801
				c0.041,0.184,0.082,0.368,0.124,0.553c0.156,0.68,0.319,1.366,0.492,2.06c0.036,0.141,0.072,0.284,0.109,0.425
				c0.152,0.601,0.311,1.208,0.476,1.819c0.049,0.18,0.096,0.359,0.147,0.54c0.195,0.708,0.4,1.423,0.613,2.145
				c0.052,0.176,0.107,0.352,0.159,0.529c0.188,0.622,0.382,1.249,0.583,1.881c0.053,0.166,0.105,0.331,0.158,0.498
				c0.239,0.739,0.49,1.485,0.749,2.237c0.068,0.197,0.139,0.397,0.208,0.595c0.234,0.667,0.475,1.339,0.727,2.016
				c0.051,0.136,0.098,0.269,0.149,0.406c0.289,0.771,0.591,1.55,0.9,2.333c0.084,0.212,0.17,0.427,0.257,0.64
				c0.301,0.747,0.609,1.497,0.929,2.255c0.03,0.07,0.058,0.14,0.087,0.21c0.343,0.806,0.703,1.62,1.069,2.437
				c0.099,0.221,0.199,0.443,0.301,0.665c0.374,0.82,0.756,1.644,1.154,2.475c0.047,0.099,0.098,0.201,0.147,0.3
				c0.365,0.759,0.744,1.522,1.131,2.289c0.112,0.223,0.225,0.446,0.34,0.67c0.428,0.839,0.868,1.682,1.321,2.531
				c0.084,0.157,0.171,0.315,0.257,0.472c0.403,0.746,0.817,1.497,1.241,2.251c0.119,0.21,0.235,0.42,0.355,0.632
				c0.489,0.862,0.993,1.729,1.51,2.601c0.115,0.194,0.234,0.388,0.35,0.583c0.453,0.756,0.917,1.516,1.392,2.279
				c0.121,0.194,0.238,0.387,0.36,0.581c0.554,0.883,1.123,1.77,1.706,2.66c0.144,0.221,0.292,0.442,0.439,0.663
				c0.525,0.794,1.061,1.591,1.608,2.392c0.106,0.154,0.208,0.306,0.314,0.46c0.626,0.908,1.272,1.82,1.928,2.737
				c0.168,0.235,0.34,0.47,0.51,0.705c0.628,0.867,1.269,1.736,1.925,2.611c0.064,0.085,0.125,0.168,0.189,0.253
				c0.706,0.936,1.434,1.876,2.173,2.819c0.189,0.241,0.379,0.483,0.57,0.724c0.75,0.947,1.512,1.898,2.297,2.853
				c0.066,0.08,0.135,0.161,0.201,0.24c0.737,0.895,1.493,1.793,2.261,2.694c0.207,0.242,0.414,0.485,0.623,0.729
				c0.824,0.956,1.66,1.914,2.519,2.877c0.135,0.151,0.273,0.302,0.409,0.453c0.768,0.857,1.553,1.717,2.352,2.579
				c0.216,0.233,0.429,0.466,0.647,0.698c0.901,0.966,1.818,1.933,2.756,2.904c0.194,0.202,0.393,0.403,0.59,0.605
				c0.825,0.848,1.664,1.699,2.518,2.55c0.212,0.212,0.423,0.424,0.637,0.637c0.985,0.977,1.991,1.956,3.015,2.938
				c0.242,0.233,0.489,0.466,0.734,0.698c0.91,0.866,1.833,1.733,2.774,2.602c0.194,0.179,0.384,0.358,0.579,0.537
				c1.076,0.988,2.175,1.98,3.291,2.973c0.284,0.252,0.571,0.506,0.858,0.759c1.041,0.919,2.098,1.84,3.174,2.763
				c0.135,0.115,0.265,0.231,0.4,0.346c1.175,1.003,2.378,2.01,3.596,3.017c0.319,0.264,0.64,0.528,0.961,0.792
				c1.236,1.015,2.488,2.031,3.768,3.049c0.087,0.069,0.178,0.139,0.265,0.209c1.215,0.965,2.455,1.93,3.711,2.897
				c0.348,0.268,0.697,0.537,1.049,0.806c0.272,0.207,0.537,0.415,0.81,0.622l-5.502,4.779L210.695,175.658z M268.835,207.658
				h-26.337l-15.888-24.41l29.057-25.244l29.056,25.244L268.835,207.658z M327.186,198.143l-58.264-50.618
				c0.275-0.209,0.541-0.416,0.814-0.625c0.348-0.266,0.694-0.532,1.039-0.799c1.258-0.969,2.502-1.938,3.72-2.905
				c0.086-0.068,0.175-0.137,0.261-0.205c1.279-1.018,2.528-2.032,3.764-3.046c0.326-0.267,0.65-0.534,0.972-0.801
				c1.215-1.006,2.414-2.009,3.587-3.01c0.139-0.119,0.274-0.237,0.412-0.356c1.071-0.918,2.122-1.835,3.158-2.75
				c0.291-0.257,0.582-0.513,0.87-0.77c1.111-0.988,2.206-1.976,3.278-2.961c0.204-0.188,0.402-0.375,0.606-0.562
				c0.928-0.858,1.84-1.714,2.738-2.569c0.254-0.241,0.51-0.483,0.761-0.724c1.016-0.974,2.015-1.948,2.993-2.917
				c0.226-0.224,0.447-0.448,0.672-0.672c0.836-0.835,1.659-1.669,2.467-2.5c0.209-0.214,0.421-0.429,0.628-0.643
				c0.93-0.964,1.84-1.923,2.733-2.881c0.226-0.242,0.448-0.484,0.673-0.725c0.781-0.845,1.551-1.688,2.305-2.529
				c0.15-0.167,0.303-0.334,0.452-0.501c0.852-0.955,1.681-1.906,2.498-2.854c0.216-0.25,0.429-0.501,0.642-0.751
				c0.755-0.885,1.497-1.767,2.221-2.646c0.078-0.095,0.158-0.19,0.236-0.283c0.777-0.946,1.532-1.887,2.274-2.826
				c0.201-0.253,0.4-0.507,0.598-0.76c0.732-0.933,1.453-1.866,2.153-2.792c0.075-0.099,0.147-0.198,0.221-0.297
				c0.645-0.858,1.272-1.711,1.889-2.562c0.177-0.244,0.352-0.486,0.527-0.729c0.652-0.91,1.292-1.815,1.914-2.716
				c0.115-0.167,0.225-0.332,0.34-0.498c0.538-0.786,1.064-1.568,1.579-2.348c0.152-0.23,0.305-0.46,0.456-0.69
				c0.579-0.884,1.144-1.765,1.693-2.64c0.128-0.205,0.252-0.407,0.379-0.611c0.467-0.75,0.923-1.497,1.369-2.241
				c0.122-0.203,0.246-0.406,0.367-0.609c0.513-0.863,1.011-1.722,1.497-2.577c0.127-0.223,0.25-0.445,0.375-0.667
				c0.415-0.738,0.82-1.475,1.216-2.205c0.091-0.167,0.184-0.336,0.274-0.503c0.451-0.843,0.887-1.679,1.312-2.513
				c0.119-0.232,0.235-0.464,0.351-0.694c0.379-0.752,0.749-1.5,1.108-2.244c0.055-0.113,0.112-0.227,0.166-0.341
				c0.395-0.824,0.774-1.641,1.144-2.454c0.105-0.23,0.208-0.459,0.312-0.688c0.364-0.811,0.72-1.617,1.061-2.417
				c0.037-0.086,0.071-0.171,0.107-0.258c0.314-0.742,0.615-1.476,0.91-2.208c0.089-0.221,0.178-0.442,0.265-0.663
				c0.307-0.775,0.606-1.547,0.893-2.311c0.056-0.149,0.108-0.296,0.163-0.445c0.245-0.661,0.481-1.317,0.709-1.968
				c0.073-0.208,0.147-0.417,0.219-0.624c0.257-0.744,0.504-1.482,0.742-2.214c0.058-0.178,0.112-0.355,0.169-0.531
				c0.197-0.618,0.387-1.231,0.571-1.84c0.056-0.185,0.113-0.371,0.168-0.555c0.211-0.714,0.414-1.422,0.607-2.122
				c0.054-0.194,0.105-0.385,0.156-0.578c0.16-0.591,0.314-1.177,0.46-1.758c0.04-0.16,0.083-0.32,0.122-0.479
				c0.17-0.682,0.33-1.358,0.484-2.027c0.045-0.198,0.089-0.395,0.133-0.591c0.13-0.584,0.257-1.165,0.375-1.739
				c0.024-0.116,0.051-0.235,0.073-0.35c0.133-0.654,0.257-1.3,0.374-1.94c0.036-0.194,0.071-0.388,0.106-0.581
				c0.108-0.602,0.21-1.2,0.305-1.789c0.017-0.108,0.034-0.214,0.051-0.322c0.091-0.572,0.174-1.138,0.252-1.699
				c0.026-0.184,0.052-0.37,0.077-0.553c0.081-0.595,0.156-1.186,0.225-1.767c0.014-0.123,0.027-0.242,0.041-0.364
				c0.056-0.496,0.108-0.985,0.156-1.469c0.017-0.17,0.033-0.342,0.05-0.511c0.052-0.555,0.099-1.104,0.14-1.643
				c0.011-0.146,0.021-0.289,0.031-0.433c0.031-0.444,0.06-0.882,0.085-1.315c0.009-0.152,0.018-0.304,0.026-0.455
				c0.003-0.056,0.006-0.113,0.01-0.169l34.724,31.25L327.186,198.143z"/>
			<path d="M349.74,294.031c-4.466,0-8.084,3.618-8.084,8.084c0,4.466,3.618,8.084,8.084,8.084h75.53
				c4.466,0,8.084-3.618,8.084-8.084c0-4.466-3.618-8.084-8.084-8.084H349.74z"/>
			<path d="M222.622,52.552h66.092c4.466,0,8.084-3.618,8.084-8.084c0-4.466-3.618-8.084-8.084-8.084h-66.092
				c-4.465,0-8.084,3.618-8.084,8.084C214.538,48.933,218.158,52.552,222.622,52.552z"/>
		</g>
	</g>
</g>
<g>
</g>
<g>
</g>
<g>
</g>
<g>
</g>
<g>
</g>
<g>
</g>
<g>
</g>
<g>
</g>
<g>
</g>
<g>
</g>
<g>
</g>
<g>
</g>
<g>
</g>
<g>
</g>
<g>
</g>
</svg>
